<svg xmlns="http://www.w3.org/2000/svg" xmlns:xlink="http://www.w3.org/1999/xlink" fill="none" version="1.1" width="120" height="120" viewBox="0 0 120 120"><g><g><rect x="0" y="0" width="120" height="120" rx="24" fill="#FAFAFA" fill-opacity="0"/></g><g><path d="M84.9879,59.0925C96.1523,63.7689,104,74.67349999999999,104,87.3474C103.9987,88.9636,102.667,90.2767,101.0208,90.2767C99.3746,90.2767,98.0428,88.9649,98.0428,87.3462C98.0428,73.6562,86.7249,62.5183,72.81360000000001,62.5183C71.1674,62.5183,69.8357,61.2065,69.8357,59.5878C69.8357,57.9691,71.1674,56.6572,72.81360000000001,56.6572C72.85220000000001,56.6572,72.89070000000001,56.6573,72.92920000000001,56.6574C74.14670000000001,56.5055,76.88329999999999,56.1792,77.0024,56.1498C84.5532,54.2844,89.9822,47.4661,89.9822,39.759100000000004C89.9822,30.4419,82.2801,22.86238,72.8123,22.86238C68.5572,22.86238,64.4762,24.40565,61.3177,27.2083C60.0938,28.288800000000002,58.2111,28.1954,57.1119,26.99481C56.0102,25.79293,56.105,23.93896,57.3276,22.85471C61.5827,19.079,67.08250000000001,17,72.8123,17C85.5634,17,95.938,27.209600000000002,95.938,39.7578C95.938,47.7402,91.6114,55.0155,84.9879,59.0925ZM58.3701,70.8187C64.9331,66.79820000000001,69.3107,59.6334,69.3107,51.4824C69.3107,38.934200000000004,58.9361,28.724600000000002,46.185,28.724600000000002C33.430099999999996,28.724600000000002,23.055419999999998,38.935500000000005,23.055419999999998,51.4837C23.055419999999998,59.6353,27.4342,66.8,33.9991,70.82C22.84158,75.49940000000001,15,86.4004,15,99.0695C15,100.6882,16.33175,102,17.97793,102C19.6241,102,20.955849999999998,100.6882,20.955849999999998,99.0695C20.955849999999998,85.3795,32.2738,74.2416,46.1851,74.2416C60.0938,74.2416,71.4117,85.3795,71.4117,99.0695C71.4117,100.6882,72.7435,102,74.3896,102C76.0358,102,77.36760000000001,100.6882,77.3689,99.0695C77.3689,86.3993,69.5281,75.4975,58.3701,70.8187ZM46.346199999999996,68.37960000000001C55.7401,68.29419999999999,63.3549,60.7479,63.3549,51.4837C63.3549,42.1665,55.6515,34.587,46.185,34.587C36.7172,34.587,29.0126,42.1665,29.0126,51.4837C29.0126,60.7482,36.6305,68.2947,46.0248,68.37960000000001C46.0786,68.3794,46.1325,68.3792,46.1864,68.3792C46.2397,68.3792,46.293,68.3794,46.346199999999996,68.37960000000001Z" fill-rule="evenodd" fill="#FFFFFF" fill-opacity="1" style="mix-blend-mode:passthrough"/></g></g></svg>