<svg xmlns="http://www.w3.org/2000/svg" xmlns:xlink="http://www.w3.org/1999/xlink" fill="none" version="1.1" width="120" height="120" viewBox="0 0 120 120"><g><g><rect x="0" y="0" width="120" height="120" rx="24" fill="#FAFAFA" fill-opacity="0"/></g><g><path d="M60.8675,61.1169C58.7347,61.1169,56.8841,60.8457,55.0334,60.2539L13.05312,45.232600000000005C8.649687,43.543800000000005,8,40.9426,8,39.5434C8,38.1381,8.649687,35.5369,12.98094,33.8788L54.5478,18.876038C57.7503,17.711071,63.2366,17.704907,66.4587,18.876038L107.9534,33.8542C112.35,35.5308,113,38.1381,113,39.5434C113,40.9488,112.35,43.543800000000005,108.013,45.208L105.9626,45.948Q105.9639,45.993700000000004,105.9639,46.0394L105.9639,62.1809Q105.9639,62.3405,105.9483,62.4992Q105.9326,62.658,105.9015,62.8145Q105.8704,62.9709,105.8241,63.1236Q105.7777,63.2763,105.7167,63.4237Q105.6556,63.5711,105.5804,63.7118Q105.5052,63.8525,105.4166,63.9851Q105.328,64.1178,105.2268,64.2411Q105.1255,64.3644,105.0127,64.47720000000001Q104.8999,64.59,104.7766,64.69120000000001Q104.6533,64.7924,104.5206,64.8811Q104.388,64.9697,104.2473,65.0449Q104.1066,65.12010000000001,103.9592,65.18119999999999Q103.8118,65.2422,103.6591,65.2885Q103.5065,65.3348,103.35,65.366Q103.1935,65.3971,103.0348,65.4127Q102.876,65.42840000000001,102.7165,65.42840000000001Q102.5569,65.42840000000001,102.3982,65.4127Q102.2394,65.3971,102.0829,65.366Q101.9265,65.3348,101.7738,65.2885Q101.6211,65.2422,101.4737,65.18119999999999Q101.3263,65.12010000000001,101.1857,65.0449Q101.045,64.9697,100.9123,64.8811Q100.7797,64.7924,100.6563,64.69120000000001Q100.533,64.59,100.4202,64.47720000000001Q100.3074,64.3644,100.2062,64.2411Q100.105,64.1177,100.0163,63.9851Q99.9277,63.8524,99.8525,63.7118Q99.7773,63.5711,99.7162,63.4237Q99.6552,63.2763,99.6089,63.1236Q99.5626,62.9709,99.5314,62.8145Q99.5003,62.658,99.4847,62.4992Q99.4691,62.3405,99.4691,62.1809L99.4691,48.292100000000005L66.4522,60.2108C65.0872,60.7964,63.2037,61.1169,60.8675,61.1169ZM15.57969,39.5434L57.2581,54.4476C58.3278,54.7928,59.4369,54.953,60.8675,54.953C62.5606,54.953,63.4662,54.7188,63.9191,54.5277L105.4137,39.5434L64.09620000000001,24.63307C62.3769,24.00436,58.61,24.01052,56.9103,24.63307L15.57969,39.5434ZM60.3084,101.0002C43.5847,101.0002,25.1658,96.2496,24.25,85.8127L24.2371,58.4222C24.2371,56.7553,25.691,55.4043,27.4845,55.4043C28.1806,55.4043,28.8255,55.6078,29.3541,55.9543L56.7757,65.4982C57.8378,65.8237,58.9323,65.98349999999999,60.3376,65.98349999999999C62.002,65.98349999999999,62.8957,65.7586,63.3491,65.5692L90.3329,55.8978C90.8979,55.4552,91.6277,55.1885,92.4245,55.1885C94.218,55.1885,95.6718,56.5396,95.6718,58.2064L95.6719,85.2513C95.7888,88.0461,94.6977,90.5331,92.5284,92.6398C86.1572,98.8029,71.713,101.0002,60.3084,101.0002ZM89.1772,62.8372L89.1772,85.6919C89.2227,86.6397,88.7875,87.5511,87.8393,88.4626C83.884,92.2897,72.5638,94.9638,60.3084,94.9638C44.7277,94.9638,31.1798,90.5452,30.7317,85.2513L30.7318,62.7663L54.5867,71.06139999999999C56.4195,71.62960000000001,58.2458,71.8959,60.3441,71.8959C62.6432,71.8959,64.5018,71.5941,65.8554,71.02590000000001L89.1772,62.8372ZM102.7165,74.05199999999999Q102.876,74.05199999999999,103.0348,74.0364Q103.1936,74.0209,103.35,73.9899Q103.5065,73.9589,103.6591,73.9128Q103.8118,73.8666,103.9592,73.8058Q104.1066,73.745,104.2473,73.6702Q104.388,73.59530000000001,104.5206,73.507Q104.6533,73.4188,104.7766,73.318Q104.8999,73.21719999999999,105.0127,73.1049Q105.1255,72.9925,105.2268,72.8697Q105.328,72.7469,105.4166,72.6148Q105.5052,72.4827,105.5804,72.3426Q105.6556,72.2025,105.7167,72.0557Q105.7777,71.90899999999999,105.8241,71.7569Q105.8704,71.6049,105.9015,71.4491Q105.9326,71.2933,105.9483,71.1352Q105.9639,70.97710000000001,105.9639,70.81819999999999Q105.9639,70.6594,105.9483,70.5013Q105.9326,70.3432,105.9015,70.1874Q105.8704,70.0315,105.8241,69.87950000000001Q105.7777,69.72749999999999,105.7167,69.58070000000001Q105.6556,69.4339,105.5804,69.2938Q105.5052,69.1537,105.4166,69.0216Q105.328,68.8896,105.2268,68.7668Q105.1255,68.644,105.0127,68.5316Q104.8999,68.41929999999999,104.7766,68.3185Q104.6533,68.21770000000001,104.5206,68.12950000000001Q104.388,68.0412,104.2473,67.96629999999999Q104.1066,67.8914,103.9592,67.8306Q103.8118,67.7698,103.6591,67.72370000000001Q103.5065,67.6776,103.35,67.6466Q103.1935,67.6156,103.0348,67.6Q102.876,67.58449999999999,102.7165,67.58449999999999Q102.5569,67.58449999999999,102.3982,67.6Q102.2394,67.6156,102.0829,67.6466Q101.9265,67.6776,101.7738,67.72370000000001Q101.6211,67.7698,101.4737,67.8306Q101.3263,67.8914,101.1857,67.96629999999999Q101.045,68.0412,100.9123,68.12950000000001Q100.7797,68.21770000000001,100.6563,68.3185Q100.533,68.41929999999999,100.4202,68.5316Q100.3074,68.644,100.2062,68.7668Q100.105,68.8896,100.0163,69.0216Q99.9277,69.1537,99.8525,69.2938Q99.7773,69.4339,99.7162,69.58070000000001Q99.6552,69.72749999999999,99.6089,69.87950000000001Q99.5626,70.0315,99.5314,70.1874Q99.5003,70.3432,99.4847,70.5013Q99.4691,70.6594,99.4691,70.81819999999999Q99.4691,70.97710000000001,99.4847,71.1352Q99.5003,71.2933,99.5314,71.4491Q99.5626,71.6049,99.6089,71.7569Q99.6552,71.90899999999999,99.7162,72.0557Q99.7773,72.2025,99.8525,72.3426Q99.9277,72.4827,100.0163,72.6148Q100.105,72.7469,100.2062,72.8697Q100.3074,72.9925,100.4202,73.1049Q100.533,73.21719999999999,100.6563,73.318Q100.7797,73.4187,100.9123,73.507Q101.045,73.59530000000001,101.1857,73.6702Q101.3263,73.745,101.4737,73.8058Q101.6211,73.8666,101.7738,73.9128Q101.9265,73.9589,102.0829,73.9899Q102.2394,74.0209,102.3982,74.0364Q102.5569,74.05199999999999,102.7165,74.05199999999999Z" fill-rule="evenodd" fill="#FFFFFF" fill-opacity="1" style="mix-blend-mode:passthrough"/></g></g></svg>