<svg xmlns="http://www.w3.org/2000/svg" xmlns:xlink="http://www.w3.org/1999/xlink" fill="none" version="1.1" width="120" height="120" viewBox="0 0 120 120"><g><g><rect x="0" y="0" width="120" height="120" rx="24" fill="#FFFFFF" fill-opacity="0"/></g><g><path d="M40.747,51.9025Q34.8808,46.0848,34.8808,37.8589Q34.8808,29.6329,40.747,23.81525Q46.610600000000005,18.0000855923,54.8973,18.0000855923Q63.1839,18.0000855923,69.0476,23.81525Q74.9137,29.6329,74.9137,37.8589Q74.9137,46.0848,69.0476,51.9025Q63.1839,57.7177,54.8973,57.7177Q46.610600000000005,57.7177,40.747,51.9025ZM64.7926,47.672799999999995Q68.894,43.606300000000005,68.894,37.8589Q68.894,32.1114,64.7926,28.045Q60.6914,23.97869,54.8973,23.97869Q49.1031,23.97869,45.0019,28.045Q40.9005,32.1114,40.9005,37.8589Q40.9005,43.606300000000005,45.0019,47.672799999999995Q49.1031,51.7391,54.8973,51.7391Q60.6914,51.7391,64.7926,47.672799999999995ZM43.650800000000004,66.5079L44.2763,66.4999L61.3811,66.4999Q62.1511,66.5,62.2548,67.2471L62.2651,67.4171L62.2651,71.59790000000001Q62.265,72.3656,61.5144,72.4684L61.3438,72.4785L44.268100000000004,72.4785Q37.9516,72.4785,32.9978,76.34Q28.12932,80.1351,26.5903,86.0528Q26.13999,87.8245,26.0427,89.6423L26.04176,89.6599L26.01971,90.5612L26.01971,96.0215L61.381,96.0215Q62.1511,96.0216,62.2548,96.7687L62.2651,96.9387L62.2651,101.1195Q62.265,101.8872,61.5143,101.99L61.3439,102.0001L23.00986,102.0001Q20.233158,101.9957,20.010823,99.2547L20,98.9863L20,90.576Q20,80.7671,26.90575,73.7533Q33.7993,66.7519,43.650800000000004,66.5079ZM90.9837,85.0635L92.289,86.3587L90.9837,87.6538C91.1439,86.7984,91.1439,85.9189,90.9837,85.0635ZM78.334,85.0635C78.1738,85.9189,78.1738,86.7984,78.334,87.6538L77.0287,86.3587L78.334,85.0635ZM65.3177,86.3588Q65.3177,86.0468,65.632,85.7349L77.65780000000001,73.8061Q77.91640000000001,73.5497,78.28139999999999,73.5497Q78.6464,73.5497,78.9051,73.80619999999999L81.9109,76.7877Q82.2251,77.09960000000001,82.2251,77.4114Q82.2252,77.7234,81.91069999999999,78.03540000000001L73.5222,86.3587L81.91069999999999,94.6819Q82.2251,94.9939,82.2251,95.3058Q82.2251,95.6178,81.91069999999999,95.9297L78.9049,98.9113Q78.6464,99.1677,78.28139999999999,99.1677Q77.91640000000001,99.1677,77.6577,98.9111L65.632,86.9824Q65.3178,86.6706,65.3177,86.3588ZM87.407,76.7876L90.4127,73.80619999999999Q90.6714,73.5497,91.0363,73.5497Q91.4013,73.5497,91.66,73.80619999999999L103.6857,85.7349Q104,86.0467,104,86.3586Q104,86.6706,103.6856,86.9826L91.6599,98.9113Q91.4014,99.1677,91.0363,99.1677Q90.6713,99.1677,90.4127,98.9112L87.4069,95.9296Q87.0926,95.6178,87.0926,95.3059Q87.0925,94.9939,87.407,94.6819L95.7955,86.3587L87.407,78.03540000000001Q87.0926,77.7235,87.0926,77.41149999999999Q87.0926,77.09960000000001,87.407,76.7876Z" fill-rule="evenodd" fill="#FFFFFF" fill-opacity="1" style="mix-blend-mode:passthrough"/></g></g></svg>